<svg width="1024" height="1024" viewBox="0 0 1024 1024" fill="none" xmlns="http://www.w3.org/2000/svg">
<path d="M486.5 74.6C462.7 77.8 440.7 85.7 417.1 99.6C403.7 107.4 383.4 126 371.9 141C361 155.2 352.5 171.3 348.4 185.5C347.2 189.9 346.2 193.6 346.4 193.7C346.5 193.8 349.2 192.4 352.3 190.4C357.6 187.1 358.6 186.9 368.2 186.4C376.4 186 379.5 186.3 383.5 187.7L388.5 189.5L399.7 178C412.3 165.1 415.2 163 420.6 163C425.6 163 463.3 172 464.2 173.4C464.6 174 466.3 179 468.1 184.5C469.8 190 472.3 196.7 473.5 199.5C474.8 202.2 476.5 207.2 477.5 210.5L479.2 216.5L482.4 207C487.7 190.8 494 182.1 504.2 177C515.8 171.2 526.6 173.4 537.1 183.6C539.6 186.1 543.2 190.9 545.1 194.2C549.1 201.3 549.7 200.1 547.5 189.9C546.6 185.8 545.8 181.8 545.7 181C545.5 179.8 547.1 179.6 555.6 179.9L565.8 180.2L566.5 176.2C566.8 173.9 567.7 171.7 568.3 171.2C569.4 170.3 580.9 167 602.7 161.2L610 159.3L615.2 162.8C618.1 164.7 624.8 170.7 630.1 176.1L639.6 186L653.6 187.5C661.2 188.3 669.6 189.4 672.2 189.8C674.8 190.3 677.1 190.5 677.3 190.3C677.8 189.8 673.4 178.1 669.5 169.5C657.9 143.7 635.1 117.7 610.2 101.6C593.6 90.8 571.8 81.7 552 77.1C534 72.9 506.5 71.9 486.5 74.6ZM469 85.8C469 87.8 461.7 93.1 453.1 97.4C442.4 102.7 429.7 110.8 421.7 117.3C417.7 120.5 414 122.4 407.4 124.4C402.5 126 396.8 128.1 394.8 129.1C392.7 130.2 391 130.6 391 130.1C391 128.6 400.9 119.2 406 115.7C408.5 114 411.2 112.1 412 111.3C418.6 105.3 440.1 94.2 455.5 88.9C467 84.9 469 84.5 469 85.8ZM566.5 87.9C586.7 95.1 604.2 104.7 620.8 117.7C629 124.1 630.5 126 625.9 124.1C624.6 123.5 619.6 121.9 614.9 120.5C608.2 118.5 604.8 116.8 599.4 112.6C591.2 106.3 577.3 98.4 567.3 94.5C563 92.9 558.8 90.4 556.9 88.4C553.6 85 553.6 85 556.1 85C557.4 85 562.1 86.3 566.5 87.9ZM566 96.8C580.7 103.3 588.7 108 596.4 114.6C600.6 118.1 604.3 121.8 604.9 122.7C606.3 125.5 609 139.8 609.7 148.1L610.3 155.7L601.9 157.4C597.3 158.4 587.3 160.7 579.7 162.6C572.1 164.5 565.4 165.7 564.7 165.4C564 165 557.2 160.8 549.5 156C541.8 151.2 531.6 145.2 526.8 142.6C522 140 517.9 137.1 517.6 136.2C517.4 135.3 516.9 129.1 516.5 122.5C516.2 115.9 515.7 108.7 515.4 106.4L514.8 102.3L522.2 100.2C534.7 96.5 543.5 94.7 556.5 93.1C557.1 93.1 561.4 94.7 566 96.8ZM485.5 96.5C491 97.4 498.9 99 503.2 100.1L510.8 102.2L511.4 108.8C511.7 112.5 512.1 120.4 512.2 126.5L512.5 137.4L509.2 139.5C507.4 140.6 496.9 147.5 485.7 154.7L465.5 168L457 166C440.4 162 436.4 161.2 428.5 159.9C424.1 159.3 419.9 158.3 419.3 157.7C417.7 156.5 417.5 135.3 419.1 128.1C420.1 123.3 420.7 122.6 428.8 116.2C441.8 105.9 459.8 96.1 467.5 95C472 94.4 471.9 94.4 485.5 96.5ZM370.5 157.2C368.6 160.7 365.7 167.5 363.9 172.5C360.5 182.2 358.5 185.4 357.5 182.9C356.9 181.2 363.5 165.3 367.4 159.5C374.1 149.1 375.2 148.4 370.5 157.2Z" fill="#C8A84B"/>
<path d="M508.7 183.3C504.4 185.2 497.6 192.5 494.3 198.7C483.2 219.7 479.8 247.6 479.6 319.5C479.5 363.8 479.8 370.6 483.6 411C486.2 439 491.3 461.7 498.5 476.7C508.8 497.9 527.5 496.6 538.3 473.9C543.8 462.4 546.1 453.9 551.5 426C561.4 374.3 562.5 298.5 553.9 247.5C549.6 221.6 541.5 199.9 532.7 190.3C525.9 182.9 516.1 180.1 508.7 183.3ZM524.9 246.5C534 270.7 534.3 391.8 525.4 426.5C523 435.7 518 438.5 513.8 433C507.6 424.6 504.7 371.8 506.9 303.3C508.4 254.4 509.5 245.6 514.6 240.5C517 238.1 517.3 238.1 520 239.5C522 240.5 523.4 242.6 524.9 246.5Z" fill="#C8A84B"/>
<path d="M434.8 187.6C418 199.1 407.7 224.2 401.1 270C396 305.6 397.7 344.2 406.6 389.5C417 442.7 432.9 477.5 451.7 488.7C463.5 495.6 473.3 484.6 476.4 461C479 441.2 479.3 429.8 477.6 410C476.7 399.9 476 389 476 385.9V380.3L463.4 379.6C456.5 379.2 450.5 379.1 450.2 379.5C449.9 379.8 450.2 384.6 450.8 390.3C451.5 395.9 452.3 407.6 452.6 416.2C453.2 429.9 453.1 432.2 451.6 434.4C444.9 444.6 435.8 423.6 430.5 385.8C423.2 333.5 425.6 257.8 435 242.6C436.9 239.4 437.7 238.9 440.3 239.2C447.3 239.9 449.6 251.2 448.5 280.2L447.8 300H461.3H474.7L475.3 282.4C475.9 262.2 474.7 237.5 472.5 224.8C468 198.9 459 185.3 445.6 184.2C441 183.8 439.9 184.2 434.8 187.6Z" fill="#C8A84B"/>
<path d="M555.4 191.8C555.7 193.8 556.7 199.2 557.5 203.8C568.1 263.1 568.6 340.3 559 421C556.8 439.4 554.1 460.1 553 467C549.3 488.9 549.5 487.3 551.6 486.7C552.6 486.4 556.8 485.8 560.7 485.4C564.7 485 568.6 484.2 569.4 483.6C570.3 482.9 572.4 473 575.3 455C582.3 412.5 583.8 402.7 585.6 386.5C586.5 378.1 587.8 370.9 588.5 370.1C589.6 369 590.5 369 593.4 370C603.4 373.3 602.9 386 590.2 449C587.4 462.5 584.9 475.4 584.6 477.8L584 482L588.2 481.4C590.6 481 595.2 480 598.5 479.1L604.4 477.5L606.7 469.5C612.3 450.2 620.8 413.2 624.1 394C626.6 379.4 627.2 355.2 625.2 348.2C624.5 345.9 622.4 342.5 620.5 340.6L617.2 337.2L620.5 334C635.8 319.2 638.5 278.4 627 235.1C623.5 222 620.1 213.8 614.9 205.9C606 192.6 598.8 190 567.1 188.6L554.7 188L555.4 191.8ZM599.9 253.7C608.2 259.9 610.7 291.8 604 305C601.9 309.1 598.2 311 592.4 311H589V298.2C589 291.2 588.7 277.7 588.3 268.1L587.7 250.7L592.5 251.2C595.1 251.5 598.4 252.7 599.9 253.7Z" fill="#C8A84B"/>
<path d="M625.4 195.3C625.8 196.5 627.6 204 629.5 212.1C642.2 266.6 643.5 310.2 633.9 370C628 407.2 626.3 415.5 616.4 453.3C613.4 464.7 611 474.5 611 475.1C611 475.9 612.1 476 614.3 475.6C616 475.2 625.1 473.6 634.3 472C653 468.9 653.2 468.8 658.5 460.1C667.8 444.6 683 415.2 683 412.4C683 411.6 672.2 412.6 658.6 414.6C653.2 415.4 648.5 415.8 648.2 415.5C647.9 415.3 648.4 412.2 649.3 408.8C651 402.5 656.6 375.3 658 367.2C658.4 364.9 658.9 362.7 659.2 362.4C659.5 362.1 666.2 361.3 674.1 360.5C696.1 358.3 695.7 358.4 696.4 354.7C698 345.9 699.9 327 700.6 314.8L701.3 301L683.9 300.8L666.6 300.5L666.3 292.5C665.8 277.6 665 265.5 664.4 261.6L663.7 257.7L682.4 258.3L701 259L700.4 254.8C698.8 242.6 691.7 216.8 686.9 205.2C685 200.7 684.4 200.1 681.1 199.6C675.4 198.7 637.2 194.2 630.6 193.6C625 193.1 624.8 193.2 625.4 195.3Z" fill="#C8A84B"/>
<path d="M361.1 195.6C347.9 200.3 338.4 211.3 331.1 230.5C325.9 244.3 324 256.1 324 275.5C324 291.6 325.6 303.9 328.9 313.4C331.3 320.1 338.8 335.4 342.2 340.3C348.4 349.3 361.4 364.9 362.3 364.3C362.9 364 363 364.2 362.6 364.8C362.2 365.4 363.7 368.5 365.9 371.7C374.7 384.7 384 410.2 384 421.7C384 427.8 383.3 429 379.4 429C376.8 429 375.6 428.3 373.6 425.7C369 419.7 365.8 411.8 362.4 398.2C360.5 390.7 358.8 384.4 358.5 384.2C358.1 383.7 348 382.5 336.3 381.4C330.4 380.8 329 381 329 382.1C329 386.2 339.6 413.9 344.5 422.5C363.7 456.7 371.3 465.6 386.9 472.6C390.4 474.2 394.1 475 397.5 475C407.2 475 410.8 468.6 411.7 450C412.2 440.5 411.5 435.1 407 409.5C397.3 354.4 387.8 325.3 373.7 307.9C364.1 296 355.1 281.9 352.8 275.2C348.7 263.4 350.2 245.9 355.7 239.8C358.2 237 363.4 237.5 366 240.7C367.9 243.2 368.1 244.5 367.9 258.4L367.8 273.5L373.6 274.3C376.9 274.7 383.1 274.9 387.5 274.8L395.5 274.5L396.2 265C397.5 246.5 397.3 223.9 395.6 216.2C393.3 205.3 388.2 198 381 195.5C375.6 193.6 366.8 193.7 361.1 195.6Z" fill="#C8A84B"/>
<path d="M627.5 476.7C621.2 477.6 612.5 480.2 606.1 483.2C597.3 487.4 585 499.7 579.8 509.6C567.5 533 563.9 560.9 570.5 580.8C573.6 589.9 581.6 603.5 589 612C595.6 619.7 603.7 632.4 605.2 637.4C605.9 639.6 606.4 646.5 606.4 652.7V663.8L609.2 654.2C610.7 648.9 612.7 642.5 613.6 640C615.6 634.5 627.3 606.4 630.5 599.5C636.1 587.3 638.1 581.6 637.6 579.4C636.8 576.3 631.6 571.5 617.9 561.4C602.8 550.1 601.6 548.3 602.2 538.3C602.8 528.7 604.7 524.9 610.4 521.5C616.7 517.8 622.9 518.2 624.9 522.5C626.4 525.6 626.3 526.5 622.7 541L621.4 546.5H636.3H651.3L654.2 538C661.2 517.4 663.1 502 660.2 492C658.6 486.8 651.6 479.7 646.7 478.1C642.8 477 631.6 476.1 627.5 476.7Z" fill="#C8A84B"/>
<path d="M381.2 479.5C375 481.2 374.4 481.5 370.2 485.1C363 491.3 361.1 499.9 363.4 515.8C365.2 527.6 373.8 554.7 380.3 569.1C382.3 573.3 385.2 580 386.8 584.1C388.5 588.2 392.9 598 396.8 606C400.6 614 404.1 621.6 404.5 623C404.9 624.4 406.3 627.6 407.6 630.2C410.3 635.5 411.6 638.9 417.1 654.5L421 665.5L420.5 648C419.5 617.5 414 574.4 407.4 546.5C403.6 530.6 404.3 521.5 409.7 519.1C417.5 515.6 426.2 520.8 430.4 531.5C432.4 536.5 436 551.7 436 555C436 556.4 436.4 558.1 436.8 558.7C437.6 560 445.8 561.4 459.8 562.5L468 563.2V559.2C468 547.4 461.6 523.6 455.2 512C447.8 498.5 432 485.5 417.5 481C408.3 478.1 389 477.3 381.2 479.5Z" fill="#C8A84B"/>
<path d="M467.3 497.9C467.6 499.3 469 504.3 470.4 509C476.3 528.7 479.8 553 480.7 580C481.5 605 479.8 627.6 472.5 694.5C467.7 737.6 467.9 735 469.3 735.5C472.3 736.5 495.6 737.5 496.1 736.7C496.5 736.2 497 732.8 497.4 729.1C497.7 725.5 498.5 718.1 499.2 712.7L500.3 703H514.6H528.9L529.4 707.2C529.7 709.6 530.5 717.5 531.2 724.7L532.4 738H536.2C540 738 560.3 736 560.8 735.5C560.9 735.4 560.1 727.2 559 717.4C552.1 657.1 551 581.6 556.6 544C558.8 529.3 563.7 509.7 567.2 502.1C568.8 498.6 569.8 495.5 569.6 495.2C569.3 494.9 563.5 495.4 556.8 496.4C525.6 500.6 507.9 500.8 480.2 497.1L466.8 495.4L467.3 497.9ZM518.4 543C518.7 546 519.9 563.3 521 581.5C522.1 599.6 523.7 624.6 524.6 636.8C526.1 655.9 526.1 659.3 524.9 660.1C523.4 661 508.1 661.3 505.8 660.5C504.2 659.9 504.2 660.6 508 629.5C509.1 620.7 511.4 598.2 513 579.5C516.1 544.3 516.9 536.6 517.5 537.2C517.6 537.3 518.1 540 518.4 543Z" fill="#C8A84B"/>
<path d="M442 637.4C442 655.1 440.7 665.9 437.8 673.9C435 681.3 431.8 684.4 427.7 683.7L424.5 683.2L424.8 705.3L425 727.5L428.3 729.1C438.4 734.3 445.4 731.1 454.4 717.1C465.2 700.3 470.6 677.6 471.8 643.3L472.5 624.1L466.5 623.6C463.2 623.3 456.3 622.8 451.3 622.5L442 621.8V637.4Z" fill="#C8A84B"/>
<path d="M580.5 644C577.2 644.4 571.7 644.8 568.3 644.9L562.2 645L561.4 652.7C559.8 670.3 562.7 699.8 567.5 713C569.9 719.9 577 729.8 580.8 731.6C585.2 733.6 591 732.8 598.2 729.2L603.5 726.5L603 719C602.7 714.9 602.5 704.4 602.5 695.8V680.1L599.9 682.6C591.3 690.8 586.4 675.9 589.3 650.2C590.2 642 591.2 642.7 580.5 644Z" fill="#C8A84B"/>
<path d="M422.7 735.7C422.3 736 422 737.3 422 738.4C422 740.5 416.7 762.1 415.5 765.1C415 766.4 416.5 767.2 424 769.1L433.2 771.5L432.6 775.8C432.3 778.1 427.8 797 422.6 817.8C409.5 870.8 399 915.5 399 918.9C399 921.5 401.3 922.7 416.5 927.8C429.3 932.1 434 933.3 434 932.5C434 930.1 459.7 780.5 460.4 778.3C460.7 777.5 462 777.4 464.7 778C466.8 778.5 471.7 779.1 475.7 779.5C484.1 780.3 483.4 781.4 485 765C485.6 758.7 486.2 752.5 486.4 751.2C486.8 748.3 485.2 747.6 474 746C463.5 744.5 435.3 738.6 428.5 736.6C425.8 735.7 423.5 735 423.4 735C423.4 735 423 735.3 422.7 735.7Z" fill="#C8A84B"/>
<path d="M570 743.5C563.7 744.8 555.5 746.2 551.8 746.6L545 747.3V751.4C545 753.6 545.5 758.5 546 762.2C546.5 765.9 547.7 775.4 548.5 783.2C549.4 791.1 550.9 803.8 552 811.5C553.1 819.2 556 840.6 558.5 859C560.9 877.4 564.3 902.4 566 914.5C567.6 926.6 569 936.8 569 937.2C569 937.7 569.8 938 570.8 938C572.9 938 594.8 932.5 595.5 931.8C595.8 931.5 594.7 922.4 593.1 911.4C591.4 900.5 588.7 882.3 587 871.1C585.4 859.9 584 850.5 584 850.3C584 850.2 585.7 850 587.8 850C592.6 850 598.4 853.9 600.9 858.8C603.5 864 604.4 867.2 610.6 896.4C613.6 910.6 616.3 922.7 616.6 923.2C619.5 927.9 646.9 909.4 654.8 897.4C660.6 888.8 660.1 882.9 651.9 864.2C649 857.7 644.1 846.2 640.9 838.6C637.6 830.9 634.8 824.4 634.5 824.2C634.2 823.9 633.2 824.4 632.3 825.2C631.3 826 628.3 827.9 625.5 829.5C622.8 831 620.3 832.4 620.1 832.6C619.9 832.8 620.8 834.7 622.2 836.7C626.3 843 629.1 850 631.6 859.9C632.9 865 634 870 634 870.9C634 871.8 631 866.4 627.3 859C621.7 847.7 619.6 844.5 614 839L607.5 832.5L613.1 827C619.8 820.4 623 812.9 623.2 803.6C623.2 798.5 622.5 795.5 618.1 784.7C615.3 777.6 611.7 766.6 610 760.2C607.6 750.5 606.6 748.1 604.3 746.2C597.8 741 586.4 740.1 570 743.5ZM587.5 775.4C593.5 778 597.8 790.6 596.5 802.1C595.6 809.8 591.7 814.4 585.2 815.5C582.8 815.9 580.6 816 580.4 815.7C580.1 815.4 578.6 806.5 577 795.9C574.4 778.1 574.3 776.4 575.8 775.2C577.9 773.6 583.3 773.7 587.5 775.4Z" fill="#C8A84B"/>
<path d="M529 749.1C524.9 749.5 514.9 749.6 506.8 749.3L492 748.7V753.6C492 760.3 489.3 780.6 487 791.2C485.9 796 484.2 805.3 483 811.7C481.9 818.2 479.8 828.7 478.5 835C472.2 865.3 460.7 925.5 459.5 934.1L458.8 938.7L471.7 940.1C494.2 942.6 561 941.6 563.5 938.8C564 938.2 558.8 906.5 558.1 905.7C557.6 905.3 554.4 905.4 550.9 906C547.4 906.5 536.3 907.3 526.3 907.7L508 908.3V881.3V854.3L525.7 853.6C535.5 853.3 543.7 852.6 544.1 852.2C544.4 851.8 543.9 844.5 542.9 836C541.9 827.5 541.1 819.9 541.1 819.3C541 818.3 537.2 818.2 525.1 818.5C513 818.8 509.1 818.6 508.7 817.7C508.4 817 508.5 808.5 508.8 798.9L509.3 781.3L524.8 780.7C533.3 780.4 540.6 779.7 541 779.3C542.1 778.2 538.7 748.7 537.5 748.5C536.9 748.4 533.1 748.7 529 749.1Z" fill="#C8A84B"/>
<path d="M387.2 832.7C372 865.2 365 882.2 365 886.7C365.1 893.8 374.2 905.6 385.3 913L391.4 917.1L394 905.3C398.9 883.4 407 849.6 409.4 840.9L411.8 832.2L402.1 828.1C396.8 825.8 392.2 824 391.9 824C391.6 824 389.5 827.9 387.2 832.7Z" fill="#C8A84B"/>
<path d="M360 905.2C359.2 908.1 358.6 914.3 358.6 919C358.5 926.6 358.8 928.1 361.5 932.9C376.2 959.5 430.5 978.3 499.2 980.5C542 981.9 577.8 977.6 609.5 967.3C652.6 953.3 671 933.9 664.6 908.9C663.7 905.4 662.4 902.1 661.8 901.5C661 900.8 660.9 900.9 661.5 901.9C661.9 902.6 661.9 903.5 661.4 903.9C660.9 904.2 659.2 906.2 657.7 908.3C647.1 922.5 628.6 933.6 601 942.4C587.6 946.7 572.8 949.7 549 953.1C536.3 955 488.8 955 476.5 953.2C429 946.2 406.2 939 383.8 924.3C376.2 919.3 365.5 908.2 363.4 903.2C362.6 901.5 361.8 900 361.6 900C361.4 900 360.7 902.4 360 905.2Z" fill="#C8A84B"/>
</svg>
